# Blender v2.81 (sub 16) OBJ File: 'world_high.blend'
# www.blender.org
mtllib world_high.mtl
o Cube_Cube.001
v -20.000000 -2.000000 20.000000
v -20.000000 0.000000 20.000000
v -20.000000 -2.000000 -20.000000
v -20.000000 0.000000 -20.000000
v 20.000000 -2.000000 20.000000
v 20.000000 0.000000 20.000000
v 20.000000 -2.000000 -20.000000
v 20.000000 0.000000 -20.000000
v -30.000000 39.000000 10.000000
v -30.000000 40.000000 10.000000
v -30.000000 39.000000 -10.000000
v -30.000000 40.000000 -10.000000
v -10.000000 39.000000 10.000000
v -10.000000 40.000000 10.000000
v -10.000000 39.000000 -10.000000
v -10.000000 40.000000 -10.000000
v -10.000000 59.000000 -10.000000
v -10.000000 60.000000 -10.000000
v -10.000000 59.000000 -30.000000
v -10.000000 60.000000 -30.000000
v 10.000000 59.000000 -10.000000
v 10.000000 60.000000 -10.000000
v 10.000000 59.000000 -30.000000
v 10.000000 60.000000 -30.000000
v 10.000000 79.000000 10.000000
v 10.000000 80.000000 10.000000
v 10.000000 79.000000 -10.000000
v 10.000000 80.000000 -10.000000
v 30.000000 79.000000 10.000000
v 30.000000 80.000000 10.000000
v 30.000000 79.000000 -10.000000
v 30.000000 80.000000 -10.000000
v -10.000000 99.000000 40.000000
v -10.000000 100.000000 40.000000
v -10.000000 99.000000 20.000000
v -10.000000 100.000000 20.000000
v 10.000000 99.000000 40.000000
v 10.000000 100.000000 40.000000
v 10.000000 99.000000 20.000000
v 10.000000 100.000000 20.000000
v -50.000000 119.000000 30.000000
v -50.000000 120.000000 30.000000
v -50.000000 119.000000 10.000000
v -50.000000 120.000000 10.000000
v -30.000000 119.000000 30.000000
v -30.000000 120.000000 30.000000
v -30.000000 119.000000 10.000000
v -30.000000 120.000000 10.000000
v -30.000000 129.000000 -30.000000
v -30.000000 130.000000 -30.000000
v -30.000000 129.000000 -50.000000
v -30.000000 130.000000 -50.000000
v -10.000000 129.000000 -30.000000
v -10.000000 130.000000 -30.000000
v -10.000000 129.000000 -50.000000
v -10.000000 130.000000 -50.000000
v 30.000000 139.000000 -20.000000
v 30.000000 140.000000 -20.000000
v 30.000000 139.000000 -40.000000
v 30.000000 140.000000 -40.000000
v 50.000000 139.000000 -20.000000
v 50.000000 140.000000 -20.000000
v 50.000000 139.000000 -40.000000
v 50.000000 140.000000 -40.000000
v 30.000000 159.000000 60.000000
v 30.000000 160.000000 60.000000
v 30.000000 159.000000 40.000000
v 30.000000 160.000000 40.000000
v 50.000000 159.000000 60.000000
v 50.000000 160.000000 60.000000
v 50.000000 159.000000 40.000000
v 50.000000 160.000000 40.000000
vt 0.962264 0.800000
vt 0.981132 0.400000
vt 0.981132 0.800000
vt 0.962264 0.400000
vt 0.981132 0.000000
vt 0.943396 0.400000
vt 0.962264 0.000000
vt 0.962264 0.400000
vt 0.962264 0.400000
vt 0.943396 0.800000
vt 0.943396 0.400000
vt 0.377358 0.400000
vt 0.000000 0.800000
vt 0.000000 0.400000
vt 0.000000 0.400000
vt 0.377358 0.000000
vt 0.377358 0.400000
vt 0.981132 0.400000
vt 0.990566 0.200000
vt 0.990566 0.400000
vt 0.792453 0.800000
vt 0.783019 1.000000
vt 0.783019 0.800000
vt 0.820755 1.000000
vt 0.830189 0.800000
vt 0.830189 1.000000
vt 0.801887 0.800000
vt 0.792453 1.000000
vt 0.792453 0.800000
vt 0.566038 1.000000
vt 0.754717 0.800000
vt 0.754717 1.000000
vt 0.566038 0.800000
vt 0.377358 1.000000
vt 0.377358 0.800000
vt 0.801887 1.000000
vt 0.811321 0.800000
vt 0.811321 1.000000
vt 0.915095 0.800000
vt 0.905661 1.000000
vt 0.905661 0.800000
vt 0.811321 1.000000
vt 0.820755 0.800000
vt 0.820755 1.000000
vt 0.971698 0.800000
vt 0.962264 1.000000
vt 0.962264 0.800000
vt 0.754717 0.400000
vt 0.566038 0.600000
vt 0.566038 0.400000
vt 0.754717 0.800000
vt 0.566038 0.600000
vt 0.754717 0.600000
vt 0.981132 0.200000
vt 0.990566 0.000000
vt 0.990566 0.200000
vt 0.905661 0.800000
vt 0.896227 1.000000
vt 0.896227 0.800000
vt 0.981132 1.000000
vt 0.990566 0.800000
vt 0.990566 1.000000
vt 0.962264 0.800000
vt 0.952830 1.000000
vt 0.952830 0.800000
vt 0.754717 0.000000
vt 0.943396 0.200000
vt 0.754717 0.200000
vt 0.943396 0.400000
vt 0.754717 0.600000
vt 0.754717 0.400000
vt 0.990566 0.400000
vt 1.000000 0.200000
vt 1.000000 0.400000
vt 0.990566 0.600000
vt 0.981132 0.800000
vt 0.981132 0.600000
vt 0.849057 1.000000
vt 0.858491 0.800000
vt 0.858491 1.000000
vt 1.000000 0.000000
vt 0.990566 0.200000
vt 0.990566 0.000000
vt 0.943396 0.600000
vt 0.754717 0.800000
vt 0.754717 0.600000
vt 0.754717 0.400000
vt 0.943396 0.200000
vt 0.943396 0.400000
vt 0.877359 1.000000
vt 0.886793 0.800000
vt 0.886793 1.000000
vt 0.773585 0.800000
vt 0.764151 1.000000
vt 0.764151 0.800000
vt 0.924529 1.000000
vt 0.933963 0.800000
vt 0.933963 1.000000
vt 0.783019 0.800000
vt 0.773585 1.000000
vt 0.773585 0.800000
vt 0.377358 0.000000
vt 0.566038 0.200000
vt 0.377358 0.200000
vt 0.754717 0.200000
vt 0.566038 0.000000
vt 0.754717 0.000000
vt 0.867925 1.000000
vt 0.877359 0.800000
vt 0.877359 1.000000
vt 0.990566 0.400000
vt 0.981132 0.600000
vt 0.981132 0.400000
vt 0.839623 1.000000
vt 0.849057 0.800000
vt 0.849057 1.000000
vt 0.952830 0.800000
vt 0.943396 1.000000
vt 0.943396 0.800000
vt 0.377358 0.400000
vt 0.566038 0.200000
vt 0.566038 0.400000
vt 0.188679 1.000000
vt 0.377358 0.800000
vt 0.377358 1.000000
vt 0.971698 1.000000
vt 0.981132 0.800000
vt 0.981132 1.000000
vt 0.830189 1.000000
vt 0.839623 0.800000
vt 0.839623 1.000000
vt 0.915095 1.000000
vt 0.924529 0.800000
vt 0.924529 1.000000
vt 0.943396 0.800000
vt 0.933963 1.000000
vt 0.933963 0.800000
vt 0.000000 1.000000
vt 0.188679 0.800000
vt 0.188679 1.000000
vt 0.566038 0.400000
vt 0.377358 0.600000
vt 0.377358 0.400000
vt 0.754717 1.000000
vt 0.764151 0.800000
vt 0.764151 1.000000
vt 0.896227 0.800000
vt 0.886793 1.000000
vt 0.886793 0.800000
vt 0.990566 0.600000
vt 1.000000 0.400000
vt 1.000000 0.600000
vt 0.867925 0.800000
vt 0.858491 1.000000
vt 0.858491 0.800000
vt 0.566038 0.200000
vt 0.754717 0.400000
vt 0.566038 0.400000
vt 0.566038 0.800000
vt 0.377358 0.600000
vt 0.566038 0.600000
vt 0.962264 0.000000
vt 0.943396 0.000000
vt 0.377358 0.800000
vt 0.000000 0.000000
vt 0.981132 0.200000
vt 0.792453 1.000000
vt 0.820755 0.800000
vt 0.801887 1.000000
vt 0.566038 0.800000
vt 0.566038 1.000000
vt 0.801887 0.800000
vt 0.915095 1.000000
vt 0.811321 0.800000
vt 0.971698 1.000000
vt 0.754717 0.600000
vt 0.566038 0.800000
vt 0.981132 0.000000
vt 0.905661 1.000000
vt 0.981132 0.800000
vt 0.962264 1.000000
vt 0.943396 0.000000
vt 0.943396 0.600000
vt 0.990566 0.200000
vt 0.990566 0.800000
vt 0.849057 0.800000
vt 1.000000 0.200000
vt 0.943396 0.800000
vt 0.754717 0.200000
vt 0.877359 0.800000
vt 0.773585 1.000000
vt 0.924529 0.800000
vt 0.783019 1.000000
vt 0.566038 0.000000
vt 0.566038 0.200000
vt 0.867925 0.800000
vt 0.990566 0.600000
vt 0.839623 0.800000
vt 0.952830 1.000000
vt 0.377358 0.200000
vt 0.188679 0.800000
vt 0.971698 0.800000
vt 0.830189 0.800000
vt 0.915095 0.800000
vt 0.943396 1.000000
vt 0.000000 0.800000
vt 0.566038 0.600000
vt 0.754717 0.800000
vt 0.896227 1.000000
vt 0.990566 0.400000
vt 0.867925 1.000000
vt 0.754717 0.200000
vt 0.377358 0.800000
vn -1.0000 0.0000 0.0000
vn 0.0000 0.0000 -1.0000
vn 1.0000 0.0000 0.0000
vn 0.0000 0.0000 1.0000
vn 0.0000 -1.0000 0.0000
vn 0.0000 1.0000 0.0000
usemtl None
s off
f 2/1/1 3/2/1 1/3/1
f 4/4/2 7/5/2 3/2/2
f 8/6/3 5/7/3 7/8/3
f 6/9/4 1/10/4 5/11/4
f 7/12/5 1/13/5 3/14/5
f 4/15/6 6/16/6 8/17/6
f 10/18/1 11/19/1 9/20/1
f 12/21/2 15/22/2 11/23/2
f 16/24/3 13/25/3 15/26/3
f 14/27/4 9/28/4 13/29/4
f 15/30/5 9/31/5 11/32/5
f 12/33/6 14/34/6 16/35/6
f 18/36/1 19/37/1 17/38/1
f 20/39/2 23/40/2 19/41/2
f 24/42/3 21/43/3 23/44/3
f 22/45/4 17/46/4 21/47/4
f 23/48/5 17/49/5 19/50/5
f 20/51/6 22/52/6 24/53/6
f 26/54/1 27/55/1 25/56/1
f 28/57/2 31/58/2 27/59/2
f 32/60/3 29/61/3 31/62/3
f 30/63/4 25/64/4 29/65/4
f 31/66/5 25/67/5 27/68/5
f 28/69/6 30/70/6 32/71/6
f 34/72/1 35/73/1 33/74/1
f 36/75/2 39/76/2 35/77/2
f 40/78/3 37/79/3 39/80/3
f 38/81/4 33/82/4 37/83/4
f 39/84/5 33/85/5 35/86/5
f 36/87/6 38/88/6 40/89/6
f 42/90/1 43/91/1 41/92/1
f 44/93/2 47/94/2 43/95/2
f 48/96/3 45/97/3 47/98/3
f 46/99/4 41/100/4 45/101/4
f 47/102/5 41/103/5 43/104/5
f 44/105/6 46/106/6 48/107/6
f 50/108/1 51/109/1 49/110/1
f 52/111/2 55/112/2 51/113/2
f 56/114/3 53/115/3 55/116/3
f 54/117/4 49/118/4 53/119/4
f 55/120/5 49/121/5 51/122/5
f 52/123/6 54/124/6 56/125/6
f 58/126/1 59/127/1 57/128/1
f 60/129/2 63/130/2 59/131/2
f 64/132/3 61/133/3 63/134/3
f 62/135/4 57/136/4 61/137/4
f 63/138/5 57/139/5 59/140/5
f 60/141/6 62/142/6 64/143/6
f 66/144/1 67/145/1 65/146/1
f 68/147/2 71/148/2 67/149/2
f 72/150/3 69/151/3 71/152/3
f 70/153/4 65/154/4 69/155/4
f 71/156/5 65/157/5 67/158/5
f 68/159/6 70/160/6 72/161/6
f 2/1/1 4/4/1 3/2/1
f 4/4/2 8/162/2 7/5/2
f 8/6/3 6/163/3 5/7/3
f 6/9/4 2/1/4 1/10/4
f 7/12/5 5/164/5 1/13/5
f 4/15/6 2/165/6 6/16/6
f 10/18/1 12/166/1 11/19/1
f 12/21/2 16/167/2 15/22/2
f 16/24/3 14/168/3 13/25/3
f 14/27/4 10/169/4 9/28/4
f 15/30/5 13/170/5 9/31/5
f 12/33/6 10/171/6 14/34/6
f 18/36/1 20/172/1 19/37/1
f 20/39/2 24/173/2 23/40/2
f 24/42/3 22/174/3 21/43/3
f 22/45/4 18/175/4 17/46/4
f 23/48/5 21/176/5 17/49/5
f 20/51/6 18/177/6 22/52/6
f 26/54/1 28/178/1 27/55/1
f 28/57/2 32/179/2 31/58/2
f 32/60/3 30/180/3 29/61/3
f 30/63/4 26/181/4 25/64/4
f 31/66/5 29/182/5 25/67/5
f 28/69/6 26/183/6 30/70/6
f 34/72/1 36/184/1 35/73/1
f 36/75/2 40/185/2 39/76/2
f 40/78/3 38/186/3 37/79/3
f 38/81/4 34/187/4 33/82/4
f 39/84/5 37/188/5 33/85/5
f 36/87/6 34/189/6 38/88/6
f 42/90/1 44/190/1 43/91/1
f 44/93/2 48/191/2 47/94/2
f 48/96/3 46/192/3 45/97/3
f 46/99/4 42/193/4 41/100/4
f 47/102/5 45/194/5 41/103/5
f 44/105/6 42/195/6 46/106/6
f 50/108/1 52/196/1 51/109/1
f 52/111/2 56/197/2 55/112/2
f 56/114/3 54/198/3 53/115/3
f 54/117/4 50/199/4 49/118/4
f 55/120/5 53/200/5 49/121/5
f 52/123/6 50/201/6 54/124/6
f 58/126/1 60/202/1 59/127/1
f 60/129/2 64/203/2 63/130/2
f 64/132/3 62/204/3 61/133/3
f 62/135/4 58/205/4 57/136/4
f 63/138/5 61/206/5 57/139/5
f 60/141/6 58/207/6 62/142/6
f 66/144/1 68/208/1 67/145/1
f 68/147/2 72/209/2 71/148/2
f 72/150/3 70/210/3 69/151/3
f 70/153/4 66/211/4 65/154/4
f 71/156/5 69/212/5 65/157/5
f 68/159/6 66/213/6 70/160/6
