# Blender v2.81 (sub 16) OBJ File: 'world.blend'
# www.blender.org
mtllib world.mtl
o Cube.002_Cube.004
v 75.932770 40.280296 -71.930733
v 75.932770 41.987770 -71.930733
v 75.932770 40.280296 -92.506088
v 75.932770 41.987770 -92.506088
v 96.508118 40.280296 -71.930733
v 96.508118 41.987770 -71.930733
v 96.508118 40.280296 -92.506088
v 96.508118 41.987770 -92.506088
v 39.530960 0.116976 -49.846981
v 39.530960 1.824453 -49.846981
v 39.530960 0.116976 -70.422333
v 39.530960 1.824453 -70.422333
v 60.106316 0.116976 -49.846981
v 60.106316 1.824453 -49.846981
v 60.106316 0.116976 -70.422333
v 60.106316 1.824453 -70.422333
v 0.217016 28.995735 -8.470260
v 0.217016 30.703213 -8.470260
v 0.217016 28.995735 -29.045612
v 0.217016 30.703213 -29.045612
v 20.792368 28.995735 -8.470260
v 20.792368 30.703213 -8.470260
v 20.792368 28.995735 -29.045612
v 20.792368 30.703213 -29.045612
v 15.627115 53.142265 -27.035175
v 15.627115 54.849739 -27.035175
v 15.627115 53.142265 -47.610527
v 15.627115 54.849739 -47.610527
v 36.202469 53.142265 -27.035175
v 36.202469 54.849739 -27.035175
v 36.202469 53.142265 -47.610527
v 36.202469 54.849739 -47.610527
v 65.497589 76.075401 -69.746620
v 65.497589 77.782875 -69.746620
v 65.497589 76.075401 -90.321976
v 65.497589 77.782875 -90.321976
v 86.072937 76.075401 -69.746620
v 86.072937 77.782875 -69.746620
v 86.072937 76.075401 -90.321976
v 86.072937 77.782875 -90.321976
v 21.087389 87.117279 -20.118824
v 21.087389 88.824753 -20.118824
v 21.087389 87.117279 -40.694176
v 21.087389 88.824753 -40.694176
v 41.662743 87.117279 -20.118824
v 41.662743 88.824753 -20.118824
v 41.662743 87.117279 -40.694176
v 41.662743 88.824753 -40.694176
v 59.167442 -3.000000 59.167442
v 59.167442 -3.000000 -59.167442
v -59.167442 -3.000000 59.167442
v -59.167442 -3.000000 -59.167442
v 59.167442 0.000000 -59.167442
v -59.167442 0.000000 -59.167442
v 59.167442 0.000000 59.167442
v -59.167442 0.000000 59.167442
vt 0.625000 0.000000
vt 0.375000 0.250000
vt 0.375000 0.000000
vt 0.625000 0.250000
vt 0.375000 0.500000
vt 0.625000 0.500000
vt 0.375000 0.750000
vt 0.625000 0.750000
vt 0.375000 1.000000
vt 0.125000 0.750000
vt 0.125000 0.500000
vt 0.875000 0.500000
vt 0.625000 0.000000
vt 0.375000 0.250000
vt 0.375000 0.000000
vt 0.625000 0.250000
vt 0.375000 0.500000
vt 0.625000 0.500000
vt 0.375000 0.750000
vt 0.625000 0.750000
vt 0.375000 1.000000
vt 0.125000 0.750000
vt 0.125000 0.500000
vt 0.875000 0.500000
vt 0.625000 0.000000
vt 0.375000 0.250000
vt 0.375000 0.000000
vt 0.625000 0.250000
vt 0.375000 0.500000
vt 0.625000 0.500000
vt 0.375000 0.750000
vt 0.625000 0.750000
vt 0.375000 1.000000
vt 0.125000 0.750000
vt 0.125000 0.500000
vt 0.875000 0.500000
vt 0.625000 0.000000
vt 0.375000 0.250000
vt 0.375000 0.000000
vt 0.625000 0.250000
vt 0.375000 0.500000
vt 0.625000 0.500000
vt 0.375000 0.750000
vt 0.625000 0.750000
vt 0.375000 1.000000
vt 0.125000 0.750000
vt 0.125000 0.500000
vt 0.875000 0.500000
vt 0.625000 0.000000
vt 0.375000 0.250000
vt 0.375000 0.000000
vt 0.625000 0.250000
vt 0.375000 0.500000
vt 0.625000 0.500000
vt 0.375000 0.750000
vt 0.625000 0.750000
vt 0.375000 1.000000
vt 0.125000 0.750000
vt 0.125000 0.500000
vt 0.875000 0.500000
vt 0.625000 0.000000
vt 0.375000 0.250000
vt 0.375000 0.000000
vt 0.625000 0.250000
vt 0.375000 0.500000
vt 0.625000 0.500000
vt 0.375000 0.750000
vt 0.625000 0.750000
vt 0.375000 1.000000
vt 0.125000 0.750000
vt 0.125000 0.500000
vt 0.875000 0.500000
vt 0.000000 1.000000
vt 1.000000 0.000000
vt 0.000000 0.000000
vt 0.000000 1.000000
vt 1.000000 1.000000
vt 1.000000 0.000000
vt 0.000000 0.000000
vt 1.000000 1.000000
vt 0.625000 1.000000
vt 0.875000 0.750000
vt 0.625000 1.000000
vt 0.875000 0.750000
vt 0.625000 1.000000
vt 0.875000 0.750000
vt 0.625000 1.000000
vt 0.875000 0.750000
vt 0.625000 1.000000
vt 0.875000 0.750000
vt 0.625000 1.000000
vt 0.875000 0.750000
vn -1.0000 0.0000 0.0000
vn 0.0000 0.0000 -1.0000
vn 1.0000 0.0000 0.0000
vn 0.0000 0.0000 1.0000
vn 0.0000 -1.0000 0.0000
vn 0.0000 1.0000 0.0000
g Cube.002_Cube.004_Material
usemtl Material
s off
f 2/1/1 3/2/1 1/3/1
f 4/4/2 7/5/2 3/2/2
f 8/6/3 5/7/3 7/5/3
f 6/8/4 1/9/4 5/7/4
f 7/5/5 1/10/5 3/11/5
f 4/12/6 6/8/6 8/6/6
f 10/13/1 11/14/1 9/15/1
f 12/16/2 15/17/2 11/14/2
f 16/18/3 13/19/3 15/17/3
f 14/20/4 9/21/4 13/19/4
f 15/17/5 9/22/5 11/23/5
f 12/24/6 14/20/6 16/18/6
f 18/25/1 19/26/1 17/27/1
f 20/28/2 23/29/2 19/26/2
f 24/30/3 21/31/3 23/29/3
f 22/32/4 17/33/4 21/31/4
f 23/29/5 17/34/5 19/35/5
f 20/36/6 22/32/6 24/30/6
f 26/37/1 27/38/1 25/39/1
f 28/40/2 31/41/2 27/38/2
f 32/42/3 29/43/3 31/41/3
f 30/44/4 25/45/4 29/43/4
f 31/41/5 25/46/5 27/47/5
f 28/48/6 30/44/6 32/42/6
f 34/49/1 35/50/1 33/51/1
f 36/52/2 39/53/2 35/50/2
f 40/54/3 37/55/3 39/53/3
f 38/56/4 33/57/4 37/55/4
f 39/53/5 33/58/5 35/59/5
f 36/60/6 38/56/6 40/54/6
f 42/61/1 43/62/1 41/63/1
f 44/64/2 47/65/2 43/62/2
f 48/66/3 45/67/3 47/65/3
f 46/68/4 41/69/4 45/67/4
f 47/65/5 41/70/5 43/71/5
f 44/72/6 46/68/6 48/66/6
f 54/73/5 55/74/5 56/75/5
f 56/75/3 52/76/3 54/73/3
f 53/77/1 49/78/1 55/74/1
f 49/78/6 52/76/6 51/79/6
f 54/73/4 50/80/4 53/77/4
f 55/74/2 51/79/2 56/75/2
f 2/1/1 4/4/1 3/2/1
f 4/4/2 8/6/2 7/5/2
f 8/6/3 6/8/3 5/7/3
f 6/8/4 2/81/4 1/9/4
f 7/5/5 5/7/5 1/10/5
f 4/12/6 2/82/6 6/8/6
f 10/13/1 12/16/1 11/14/1
f 12/16/2 16/18/2 15/17/2
f 16/18/3 14/20/3 13/19/3
f 14/20/4 10/83/4 9/21/4
f 15/17/5 13/19/5 9/22/5
f 12/24/6 10/84/6 14/20/6
f 18/25/1 20/28/1 19/26/1
f 20/28/2 24/30/2 23/29/2
f 24/30/3 22/32/3 21/31/3
f 22/32/4 18/85/4 17/33/4
f 23/29/5 21/31/5 17/34/5
f 20/36/6 18/86/6 22/32/6
f 26/37/1 28/40/1 27/38/1
f 28/40/2 32/42/2 31/41/2
f 32/42/3 30/44/3 29/43/3
f 30/44/4 26/87/4 25/45/4
f 31/41/5 29/43/5 25/46/5
f 28/48/6 26/88/6 30/44/6
f 34/49/1 36/52/1 35/50/1
f 36/52/2 40/54/2 39/53/2
f 40/54/3 38/56/3 37/55/3
f 38/56/4 34/89/4 33/57/4
f 39/53/5 37/55/5 33/58/5
f 36/60/6 34/90/6 38/56/6
f 42/61/1 44/64/1 43/62/1
f 44/64/2 48/66/2 47/65/2
f 48/66/3 46/68/3 45/67/3
f 46/68/4 42/91/4 41/69/4
f 47/65/5 45/67/5 41/70/5
f 44/72/6 42/92/6 46/68/6
f 54/73/5 53/77/5 55/74/5
f 56/75/3 51/79/3 52/76/3
f 53/77/1 50/80/1 49/78/1
f 49/78/6 50/80/6 52/76/6
f 54/73/4 52/76/4 50/80/4
f 55/74/2 49/78/2 51/79/2
