# Blender v2.81 (sub 16) OBJ File: 'world.blend'
# www.blender.org
mtllib world2.mtl
o Cube.002_Cube.004
v 75.932770 40.280296 -71.930733
v 75.932770 41.987770 -71.930733
v 75.932770 40.280296 -92.506088
v 75.932770 41.987770 -92.506088
v 96.508118 40.280296 -71.930733
v 96.508118 41.987770 -71.930733
v 96.508118 40.280296 -92.506088
v 96.508118 41.987770 -92.506088
v 39.530960 0.116976 -49.846981
v 39.530960 1.824453 -49.846981
v 39.530960 0.116976 -70.422333
v 39.530960 1.824453 -70.422333
v 60.106316 0.116976 -49.846981
v 60.106316 1.824453 -49.846981
v 60.106316 0.116976 -70.422333
v 60.106316 1.824453 -70.422333
v 0.217016 28.995735 -8.470260
v 0.217016 30.703213 -8.470260
v 0.217016 28.995735 -29.045612
v 0.217016 30.703213 -29.045612
v 20.792368 28.995735 -8.470260
v 20.792368 30.703213 -8.470260
v 20.792368 28.995735 -29.045612
v 20.792368 30.703213 -29.045612
v 15.627115 53.142265 -27.035175
v 15.627115 54.849739 -27.035175
v 15.627115 53.142265 -47.610527
v 15.627115 54.849739 -47.610527
v 36.202469 53.142265 -27.035175
v 36.202469 54.849739 -27.035175
v 36.202469 53.142265 -47.610527
v 36.202469 54.849739 -47.610527
v 65.497589 76.075401 -69.746620
v 65.497589 77.782875 -69.746620
v 65.497589 76.075401 -90.321976
v 65.497589 77.782875 -90.321976
v 86.072937 76.075401 -69.746620
v 86.072937 77.782875 -69.746620
v 86.072937 76.075401 -90.321976
v 86.072937 77.782875 -90.321976
v 21.087389 87.117279 -20.118824
v 21.087389 88.824753 -20.118824
v 21.087389 87.117279 -40.694176
v 21.087389 88.824753 -40.694176
v 41.662743 87.117279 -20.118824
v 41.662743 88.824753 -20.118824
v 41.662743 87.117279 -40.694176
v 41.662743 88.824753 -40.694176
v -44.781624 -8.862131 42.983093
v -44.781624 -7.154653 42.983093
v -44.781624 -8.862131 -41.851788
v -44.781624 -7.154653 -41.851788
v 40.053246 -8.862131 42.983093
v 40.053246 -7.154653 42.983093
v 40.053246 -8.862131 -41.851788
v 40.053246 -7.154653 -41.851788
vt 0.022643 0.863801
vt 0.028304 0.742534
vt 0.028304 0.863801
vt 0.016982 0.742534
vt 0.011321 0.863801
vt 0.011321 0.742534
vt 0.028304 0.863801
vt 0.033964 0.742534
vt 0.033964 0.863801
vt 0.022643 0.742534
vt 0.016982 0.863801
vt 0.016982 0.742534
vt 0.000000 0.621267
vt 0.068213 0.742534
vt 0.000000 0.742534
vt 0.409276 0.621267
vt 0.341064 0.500000
vt 0.409276 0.500000
vt 0.448902 0.742534
vt 0.454563 0.621267
vt 0.454563 0.742534
vt 0.437580 0.621267
vt 0.443241 0.500000
vt 0.443241 0.621267
vt 0.431920 0.742534
vt 0.437580 0.621267
vt 0.437580 0.742534
vt 0.437580 0.500000
vt 0.431920 0.621267
vt 0.431920 0.500000
vt 0.204638 0.742534
vt 0.272851 0.621267
vt 0.272851 0.742534
vt 0.136425 0.621267
vt 0.204638 0.500000
vt 0.204638 0.621267
vt 0.460223 0.742534
vt 0.465884 0.621267
vt 0.465884 0.742534
vt 0.465884 0.500000
vt 0.460223 0.621267
vt 0.460223 0.500000
vt 0.454563 0.621267
vt 0.460223 0.500000
vt 0.454563 0.500000
vt 0.448902 0.621267
vt 0.448902 0.500000
vt 0.341064 0.621267
vt 0.409276 0.742534
vt 0.341064 0.742534
vt 0.136425 0.742534
vt 0.204638 0.621267
vt 0.204638 0.742534
vt 0.471545 0.742534
vt 0.477206 0.621267
vt 0.477206 0.742534
vt 0.448902 0.500000
vt 0.443241 0.621267
vt 0.443241 0.500000
vt 0.465884 0.621267
vt 0.471545 0.500000
vt 0.471545 0.621267
vt 0.448902 0.621267
vt 0.443241 0.742534
vt 0.443241 0.621267
vt 0.272851 0.621267
vt 0.341064 0.742534
vt 0.272851 0.742534
vt 0.272851 0.621267
vt 0.204638 0.500000
vt 0.272851 0.500000
vt 0.454563 0.742534
vt 0.460223 0.621267
vt 0.460223 0.742534
vt 0.443241 0.621267
vt 0.437580 0.742534
vt 0.437580 0.621267
vt 0.477206 0.742534
vt 0.482866 0.621267
vt 0.482866 0.742534
vt 0.482866 0.500000
vt 0.477206 0.621267
vt 0.477206 0.500000
vt 0.136425 0.500000
vt 0.068213 0.621267
vt 0.068213 0.500000
vt 0.000000 0.621267
vt 0.068213 0.500000
vt 0.068213 0.621267
vt 0.005661 0.863801
vt 0.011321 0.742534
vt 0.011321 0.863801
vt 0.477206 0.500000
vt 0.471545 0.621267
vt 0.471545 0.500000
vt 0.000000 0.863801
vt 0.005661 0.742534
vt 0.005661 0.863801
vt 0.471545 0.621267
vt 0.465884 0.742534
vt 0.465884 0.621267
vt 0.272851 0.500000
vt 0.341064 0.621267
vt 0.272851 0.621267
vt 0.068213 0.621267
vt 0.136425 0.742534
vt 0.068213 0.742534
vt 0.409277 1.000000
vt 0.414937 0.500000
vt 0.414937 1.000000
vt 0.426259 0.500000
vt 0.420598 1.000000
vt 0.420598 0.500000
vt 0.281250 0.500000
vt 0.562500 0.000000
vt 0.562500 0.500000
vt 0.281250 0.000000
vt 0.000000 0.500000
vt 0.000000 0.000000
vt 0.420598 1.000000
vt 0.414937 0.500000
vt 0.420598 0.500000
vt 0.431920 1.000000
vt 0.426259 0.500000
vt 0.431920 0.500000
vt 0.022643 0.742534
vt 0.016982 0.863801
vt 0.028304 0.742534
vt 0.068213 0.621267
vt 0.341064 0.621267
vt 0.448902 0.621267
vt 0.437580 0.500000
vt 0.431920 0.621267
vt 0.437580 0.621267
vt 0.204638 0.621267
vt 0.136425 0.500000
vt 0.460223 0.621267
vt 0.465884 0.621267
vt 0.454563 0.621267
vt 0.409276 0.621267
vt 0.136425 0.621267
vt 0.471545 0.621267
vt 0.448902 0.621267
vt 0.465884 0.500000
vt 0.448902 0.742534
vt 0.341064 0.621267
vt 0.204638 0.621267
vt 0.454563 0.621267
vt 0.443241 0.742534
vt 0.477206 0.621267
vt 0.482866 0.621267
vt 0.136425 0.621267
vt 0.000000 0.500000
vt 0.005661 0.742534
vt 0.477206 0.621267
vt 0.000000 0.742534
vt 0.471545 0.742534
vt 0.341064 0.500000
vt 0.136425 0.621267
vt 0.409276 0.500000
vt 0.426259 1.000000
vt 0.281250 0.000000
vt 0.281250 0.500000
vt 0.414937 1.000000
vn -1.0000 0.0000 0.0000
vn 0.0000 0.0000 -1.0000
vn 1.0000 0.0000 0.0000
vn 0.0000 0.0000 1.0000
vn 0.0000 -1.0000 0.0000
vn 0.0000 1.0000 0.0000
usemtl Material
s off
f 2/1/1 3/2/1 1/3/1
f 4/4/2 7/5/2 3/6/2
f 8/7/3 5/8/3 7/9/3
f 6/10/4 1/11/4 5/12/4
f 7/13/5 1/14/5 3/15/5
f 4/16/6 6/17/6 8/18/6
f 10/19/1 11/20/1 9/21/1
f 12/22/2 15/23/2 11/24/2
f 16/25/3 13/26/3 15/27/3
f 14/28/4 9/29/4 13/30/4
f 15/31/5 9/32/5 11/33/5
f 12/34/6 14/35/6 16/36/6
f 18/37/1 19/38/1 17/39/1
f 20/40/2 23/41/2 19/42/2
f 24/43/3 21/44/3 23/41/3
f 22/45/4 17/46/4 21/47/4
f 23/48/5 17/49/5 19/50/5
f 20/51/6 22/52/6 24/53/6
f 26/54/1 27/55/1 25/56/1
f 28/57/2 31/58/2 27/59/2
f 32/60/3 29/61/3 31/62/3
f 30/63/4 25/64/4 29/65/4
f 31/66/5 25/67/5 27/68/5
f 28/69/6 30/70/6 32/71/6
f 34/72/1 35/73/1 33/74/1
f 36/75/2 39/76/2 35/77/2
f 40/78/3 37/79/3 39/80/3
f 38/81/4 33/82/4 37/83/4
f 39/84/5 33/85/5 35/86/5
f 36/87/6 38/88/6 40/89/6
f 42/90/1 43/91/1 41/92/1
f 44/93/2 47/94/2 43/95/2
f 48/96/3 45/97/3 47/98/3
f 46/99/4 41/100/4 45/101/4
f 47/102/5 41/103/5 43/104/5
f 44/105/6 46/106/6 48/107/6
f 56/108/3 53/109/3 55/110/3
f 54/111/4 49/112/4 53/113/4
f 55/114/5 49/115/5 51/116/5
f 52/117/6 54/118/6 56/119/6
f 51/120/2 56/121/2 55/122/2
f 49/123/1 52/124/1 51/125/1
f 2/1/1 4/126/1 3/2/1
f 4/4/2 8/127/2 7/5/2
f 8/7/3 6/128/3 5/8/3
f 6/10/4 2/1/4 1/11/4
f 7/13/5 5/129/5 1/14/5
f 4/16/6 2/130/6 6/17/6
f 10/19/1 12/131/1 11/20/1
f 12/22/2 16/132/2 15/23/2
f 16/25/3 14/133/3 13/26/3
f 14/28/4 10/134/4 9/29/4
f 15/31/5 13/135/5 9/32/5
f 12/34/6 10/136/6 14/35/6
f 18/37/1 20/137/1 19/38/1
f 20/40/2 24/138/2 23/41/2
f 24/43/3 22/45/3 21/44/3
f 22/45/4 18/139/4 17/46/4
f 23/48/5 21/140/5 17/49/5
f 20/51/6 18/141/6 22/52/6
f 26/54/1 28/142/1 27/55/1
f 28/57/2 32/143/2 31/58/2
f 32/60/3 30/144/3 29/61/3
f 30/63/4 26/145/4 25/64/4
f 31/66/5 29/146/5 25/67/5
f 28/69/6 26/147/6 30/70/6
f 34/72/1 36/148/1 35/73/1
f 36/75/2 40/149/2 39/76/2
f 40/78/3 38/150/3 37/79/3
f 38/81/4 34/151/4 33/82/4
f 39/84/5 37/152/5 33/85/5
f 36/87/6 34/153/6 38/88/6
f 42/90/1 44/154/1 43/91/1
f 44/93/2 48/155/2 47/94/2
f 48/96/3 46/156/3 45/97/3
f 46/99/4 42/157/4 41/100/4
f 47/102/5 45/158/5 41/103/5
f 44/105/6 42/159/6 46/106/6
f 56/108/3 54/160/3 53/109/3
f 54/111/4 50/161/4 49/112/4
f 55/114/5 53/162/5 49/115/5
f 52/117/6 50/163/6 54/118/6
f 51/120/2 52/164/2 56/121/2
f 49/123/1 50/161/1 52/124/1
